  0
SECTION
  2
HEADER
  9
$ACADVER
  1
AC1014
  9
$HANDSEED
  5
FFFF
  9
$INSUNITS
 70
     0
  9
$MEASUREMENT
 70
     1
  0
ENDSEC
  0
SECTION
  2
TABLES
  0
TABLE
  2
VPORT
  5
8
330
0
100
AcDbSymbolTable
 70
     4
  0
VPORT
  5
2E
330
8
100
AcDbSymbolTableRecord
100
AcDbViewportTableRecord
  2
*ACTIVE
 70
     0
 10
0.0
 20
0.0
 11
1.0
 21
1.0
 12
210.0
 22
148.5
 13
0.0
 23
0.0
 14
10.0
 24
10.0
 15
10.0
 25
10.0
 16
0.0
 26
0.0
 36
1.0
 17
0.0
 27
0.0
 37
0.0
 40
341.0
 41
1.24
 42
50.0
 43
0.0
 44
0.0
 50
0.0
 51
0.0
 71
     0
 72
   100
 73
     1
 74
     3
 75
     0
 76
     0
 77
     0
 78
     0
  0
ENDTAB
  0
TABLE
  2
LTYPE
  5
5
330
0
100
AcDbSymbolTable
 70
     1
  0
LTYPE
  5
14
330
5
100
AcDbSymbolTableRecord
100
AcDbLinetypeTableRecord
  2
BYBLOCK
 70
     0
  3

 72
    65
 73
     0
 40
0.0
  0
LTYPE
  5
15
330
5
100
AcDbSymbolTableRecord
100
AcDbLinetypeTableRecord
  2
BYLAYER
 70
     0
  3

 72
    65
 73
     0
 40
0.0
  0
LTYPE
  5
16
330
5
100
AcDbSymbolTableRecord
100
AcDbLinetypeTableRecord
  2
CONTINUOUS
 70
     0
  3
Solid line
 72
    65
 73
     0
 40
0.0
  0
ENDTAB
  0
TABLE
  2
LAYER
  5
2
100
AcDbSymbolTable
 70
1
  0
LAYER
  5
50
100
AcDbSymbolTableRecord
100
AcDbLayerTableRecord
  2
0
 70
0
  6
CONTINUOUS
  0
ENDTAB
  0
TABLE
  2
STYLE
  5
3
330
0
100
AcDbSymbolTable
 70
     1
  0
STYLE
  5
11
330
3
100
AcDbSymbolTableRecord
100
AcDbTextStyleTableRecord
  2
STANDARD
 70
     0
 40
0.0
 41
1.0
 50
0.0
 71
     0
 42
2.5
  3
txt
  4

  0
ENDTAB
  0
TABLE
  2
VIEW
  5
6
330
0
100
AcDbSymbolTable
 70
     0
  0
ENDTAB
  0
TABLE
  2
UCS
  5
7
330
0
100
AcDbSymbolTable
 70
     0
  0
ENDTAB
  0
TABLE
  2
APPID
  5
9
330
0
100
AcDbSymbolTable
 70
     2
  0
APPID
  5
12
330
9
100
AcDbSymbolTableRecord
100
AcDbRegAppTableRecord
  2
ACAD
 70
     0
  0
ENDTAB
  0
TABLE
  2
DIMSTYLE
  5
A
330
0
100
AcDbSymbolTable
 70
     1
  0
DIMSTYLE
105
27
330
A
100
AcDbSymbolTableRecord
100
AcDbDimStyleTableRecord
  2
ISO-25
 70
     0
  3

  4

  5

  6

  7

 40
1.0
 41
2.5
 42
0.625
 43
3.75
 44
1.25
 45
0.0
 46
0.0
 47
0.0
 48
0.0
140
2.5
141
2.5
142
0.0
143
0.03937007874016
144
1.0
145
0.0
146
1.0
147
0.625
 71
     0
 72
     0
 73
     0
 74
     0
 75
     0
 76
     0
 77
     1
 78
     8
170
     0
171
     3
172
     1
173
     0
174
     0
175
     0
176
     0
177
     0
178
     0
270
     2
271
     2
272
     2
273
     2
274
     3
340
11
275
     0
280
     0
281
     0
282
     0
283
     0
284
     8
285
     0
286
     0
287
     3
288
     0
  0
ENDTAB
  0
TABLE
  2
BLOCK_RECORD
  5
1
330
0
100
AcDbSymbolTable
 70
     1
  0
BLOCK_RECORD
  5
1F
330
1
100
AcDbSymbolTableRecord
100
AcDbBlockTableRecord
  2
*MODEL_SPACE
  0
BLOCK_RECORD
  5
1B
330
1
100
AcDbSymbolTableRecord
100
AcDbBlockTableRecord
  2
*PAPER_SPACE
  0
ENDTAB
  0
ENDSEC
  0
SECTION
  2
BLOCKS
  0
BLOCK
  5
20
330
1F
100
AcDbEntity
  8
0
100
AcDbBlockBegin
  2
*MODEL_SPACE
 70
     0
 10
0.0
 20
0.0
 30
0.0
  3
*MODEL_SPACE
  1

  0
ENDBLK
  5
21
330
1F
100
AcDbEntity
  8
0
100
AcDbBlockEnd
  0
BLOCK
  5
1C
330
1B
100
AcDbEntity
 67
     1
  8
0
100
AcDbBlockBegin
  2
*PAPER_SPACE
  1

  0
ENDBLK
  5
1D
330
1B
100
AcDbEntity
 67
     1
  8
0
100
AcDbBlockEnd
  0
ENDSEC
  0
SECTION
  2
ENTITIES
  0
LWPOLYLINE
  5
100
100
AcDbEntity
  8
0
 62
7
100
AcDbPolyline
 90
70
 70
1
 10
6.195801
 20
0.571472
 30
0.0
 10
37.806855
 20
0.571472
 30
0.0
 10
38.195980
 20
0.650097
 30
0.0
 10
38.513856
 20
0.864472
 30
0.0
 10
38.728231
 20
1.182348
 30
0.0
 10
38.806856
 20
1.571473
 30
0.0
 10
38.806856
 20
19.526504
 30
0.0
 10
43.000863
 20
19.526504
 30
0.0
 10
43.390411
 20
19.605129
 30
0.0
 10
43.708240
 20
19.819504
 30
0.0
 10
43.922381
 20
20.137380
 30
0.0
 10
44.000865
 20
20.526505
 30
0.0
 10
44.000865
 20
28.011518
 30
0.0
 10
43.922381
 20
28.401066
 30
0.0
 10
43.708240
 20
28.718894
 30
0.0
 10
43.390411
 20
28.933035
 30
0.0
 10
43.000863
 20
29.011520
 30
0.0
 10
38.237855
 20
29.011520
 30
0.0
 10
38.916607
 20
30.340147
 30
0.0
 10
39.275857
 20
32.032525
 30
0.0
 10
39.253113
 20
32.942861
 30
0.0
 10
39.029966
 20
33.734450
 30
0.0
 10
38.623795
 20
34.407422
 30
0.0
 10
38.051980
 20
34.961905
 30
0.0
 10
37.331899
 20
35.398029
 30
0.0
 10
36.480931
 20
35.715922
 30
0.0
 10
34.455849
 20
35.997532
 30
0.0
 10
32.742799
 20
35.906391
 30
0.0
 10
30.965718
 20
35.581156
 30
0.0
 10
29.228949
 20
35.047608
 30
0.0
 10
27.636837
 20
34.331529
 30
0.0
 10
26.462585
 20
33.589028
 30
0.0
 10
25.514834
 20
32.747526
 30
0.0
 10
24.783239
 20
33.251902
 30
0.0
 10
23.940831
 20
33.581528
 30
0.0
 10
22.000828
 20
33.815528
 30
0.0
 10
20.061700
 20
33.581528
 30
0.0
 10
19.219401
 20
33.251902
 30
0.0
 10
18.487822
 20
32.747526
 30
0.0
 10
17.540070
 20
33.589028
 30
0.0
 10
16.365818
 20
34.331529
 30
0.0
 10
14.773269
 20
35.047608
 30
0.0
 10
13.036438
 20
35.581156
 30
0.0
 10
11.259294
 20
35.906391
 30
0.0
 10
9.545807
 20
35.997532
 30
0.0
 10
7.520881
 20
35.715922
 30
0.0
 10
6.670073
 20
35.398029
 30
0.0
 10
5.950176
 20
34.961905
 30
0.0
 10
5.378544
 20
34.407422
 30
0.0
 10
4.972533
 20
33.734450
 30
0.0
 10
4.749500
 20
32.942861
 30
0.0
 10
4.726799
 20
32.032525
 30
0.0
 10
5.085299
 20
30.340147
 30
0.0
 10
5.764800
 20
29.011520
 30
0.0
 10
1.000792
 20
29.011520
 30
0.0
 10
0.611667
 20
28.933035
 30
0.0
 10
0.293791
 20
28.718894
 30
0.0
 10
0.079416
 20
28.401066
 30
0.0
 10
0.000790
 20
28.011518
 30
0.0
 10
0.000790
 20
20.526505
 30
0.0
 10
0.079416
 20
20.137380
 30
0.0
 10
0.293791
 20
19.819504
 30
0.0
 10
0.611667
 20
19.605129
 30
0.0
 10
1.000792
 20
19.526504
 30
0.0
 10
5.195799
 20
19.526504
 30
0.0
 10
5.195799
 20
1.571473
 30
0.0
 10
5.274424
 20
1.182348
 30
0.0
 10
5.488800
 20
0.864472
 30
0.0
 10
5.806675
 20
0.650097
 30
0.0
 10
6.195801
 20
0.571472
 30
0.0
  0
LWPOLYLINE
  5
101
100
AcDbEntity
  8
0
 62
7
100
AcDbPolyline
 90
6
 70
1
 10
21.000826
 20
19.526504
 30
0.0
 10
21.000826
 20
2.571475
 30
0.0
 10
7.195803
 20
2.571475
 30
0.0
 10
7.195803
 20
19.526504
 30
0.0
 10
8.828805
 20
19.526504
 30
0.0
 10
21.000826
 20
19.526504
 30
0.0
  0
LWPOLYLINE
  5
102
100
AcDbEntity
  8
0
 62
7
100
AcDbPolyline
 90
5
 70
1
 10
23.000830
 20
19.526504
 30
0.0
 10
36.806853
 20
19.526504
 30
0.0
 10
36.806853
 20
2.571475
 30
0.0
 10
23.000830
 20
2.571475
 30
0.0
 10
23.000830
 20
19.526504
 30
0.0
  0
LWPOLYLINE
  5
103
100
AcDbEntity
  8
0
 62
7
100
AcDbPolyline
 90
6
 70
1
 10
42.000862
 20
27.011516
 30
0.0
 10
23.000830
 20
27.011516
 30
0.0
 10
23.000830
 20
25.637514
 30
0.0
 10
23.000830
 20
21.526507
 30
0.0
 10
42.000862
 20
21.526507
 30
0.0
 10
42.000862
 20
27.011516
 30
0.0
  0
LWPOLYLINE
  5
104
100
AcDbEntity
  8
0
 62
7
100
AcDbPolyline
 90
5
 70
1
 10
21.000826
 20
27.011516
 30
0.0
 10
21.000826
 20
21.526507
 30
0.0
 10
2.000794
 20
21.526507
 30
0.0
 10
2.000794
 20
27.011516
 30
0.0
 10
21.000826
 20
27.011516
 30
0.0
  0
LWPOLYLINE
  5
105
100
AcDbEntity
  8
0
 62
7
100
AcDbPolyline
 90
12
 70
1
 10
22.000828
 20
31.815525
 30
0.0
 10
21.197436
 20
31.778103
 30
0.0
 10
20.467450
 20
31.620399
 30
0.0
 10
19.856152
 20
31.274258
 30
0.0
 10
19.408823
 20
30.671523
 30
0.0
 10
19.234823
 20
29.011520
 30
0.0
 10
24.766833
 20
29.011520
 30
0.0
 10
24.592832
 20
30.671523
 30
0.0
 10
24.145925
 20
31.274258
 30
0.0
 10
23.534580
 20
31.620399
 30
0.0
 10
22.804360
 20
31.778103
 30
0.0
 10
22.000828
 20
31.815525
 30
0.0
  0
LWPOLYLINE
  5
106
100
AcDbEntity
  8
0
 62
7
100
AcDbPolyline
 90
18
 70
1
 10
17.223820
 20
29.011520
 30
0.0
 10
17.418820
 20
30.866523
 30
0.0
 10
16.621694
 20
31.784150
 30
0.0
 10
15.418817
 20
32.570526
 30
0.0
 10
14.057158
 20
33.183464
 30
0.0
 10
12.572312
 20
33.640778
 30
0.0
 10
11.052965
 20
33.919966
 30
0.0
 10
9.587807
 20
33.998528
 30
0.0
 10
8.514805
 20
33.899153
 30
0.0
 10
7.600803
 20
33.626528
 30
0.0
 10
6.920302
 20
33.081527
 30
0.0
 10
6.750302
 20
32.687151
 30
0.0
 10
6.719802
 20
32.203525
 30
0.0
 10
6.955302
 20
31.076461
 30
0.0
 10
7.400053
 20
30.186772
 30
0.0
 10
7.985429
 20
29.507458
 30
0.0
 10
8.642805
 20
29.011520
 30
0.0
 10
17.223820
 20
29.011520
 30
0.0
  0
LWPOLYLINE
  5
107
100
AcDbEntity
  8
0
 62
7
100
AcDbPolyline
 90
18
 70
1
 10
26.777836
 20
29.011520
 30
0.0
 10
35.360851
 20
29.012520
 30
0.0
 10
36.017648
 20
29.507880
 30
0.0
 10
36.602728
 20
30.186897
 30
0.0
 10
37.047369
 20
31.076476
 30
0.0
 10
37.282854
 20
32.203525
 30
0.0
 10
37.252213
 20
32.687151
 30
0.0
 10
37.081978
 20
33.081527
 30
0.0
 10
36.401852
 20
33.626528
 30
0.0
 10
35.487851
 20
33.899153
 30
0.0
 10
34.414849
 20
33.998528
 30
0.0
 10
32.949690
 20
33.919966
 30
0.0
 10
31.430344
 20
33.640778
 30
0.0
 10
29.945498
 20
33.183464
 30
0.0
 10
28.583839
 20
32.570526
 30
0.0
 10
27.380587
 20
31.784150
 30
0.0
 10
26.583836
 20
30.866523
 30
0.0
 10
26.777836
 20
29.011520
 30
0.0
  0
ENDSEC
  0
SECTION
  2
OBJECTS
  0
DICTIONARY
  5
C
330
0
100
AcDbDictionary
  3
ACAD_GROUP
350
D
  3
ACAD_MLINESTYLE
350
17
  0
DICTIONARY
  5
D
330
C
100
AcDbDictionary
  0
DICTIONARY
  5
1A
330
C
100
AcDbDictionary
  0
DICTIONARY
  5
17
330
C
100
AcDbDictionary
  3
STANDARD
350
18
  0
DICTIONARY
  5
19
330
C
100
AcDbDictionary
  0
ENDSEC
  0
EOF
