  0
SECTION
  2
HEADER
  9
$ACADVER
  1
AC1014
  9
$HANDSEED
  5
FFFF
  9
$INSUNITS
 70
     0
  9
$MEASUREMENT
 70
     1
  0
ENDSEC
  0
SECTION
  2
TABLES
  0
TABLE
  2
VPORT
  5
8
330
0
100
AcDbSymbolTable
 70
     4
  0
VPORT
  5
2E
330
8
100
AcDbSymbolTableRecord
100
AcDbViewportTableRecord
  2
*ACTIVE
 70
     0
 10
0.0
 20
0.0
 11
1.0
 21
1.0
 12
210.0
 22
148.5
 13
0.0
 23
0.0
 14
10.0
 24
10.0
 15
10.0
 25
10.0
 16
0.0
 26
0.0
 36
1.0
 17
0.0
 27
0.0
 37
0.0
 40
341.0
 41
1.24
 42
50.0
 43
0.0
 44
0.0
 50
0.0
 51
0.0
 71
     0
 72
   100
 73
     1
 74
     3
 75
     0
 76
     0
 77
     0
 78
     0
  0
ENDTAB
  0
TABLE
  2
LTYPE
  5
5
330
0
100
AcDbSymbolTable
 70
     1
  0
LTYPE
  5
14
330
5
100
AcDbSymbolTableRecord
100
AcDbLinetypeTableRecord
  2
BYBLOCK
 70
     0
  3

 72
    65
 73
     0
 40
0.0
  0
LTYPE
  5
15
330
5
100
AcDbSymbolTableRecord
100
AcDbLinetypeTableRecord
  2
BYLAYER
 70
     0
  3

 72
    65
 73
     0
 40
0.0
  0
LTYPE
  5
16
330
5
100
AcDbSymbolTableRecord
100
AcDbLinetypeTableRecord
  2
CONTINUOUS
 70
     0
  3
Solid line
 72
    65
 73
     0
 40
0.0
  0
ENDTAB
  0
TABLE
  2
LAYER
  5
2
100
AcDbSymbolTable
 70
1
  0
LAYER
  5
50
100
AcDbSymbolTableRecord
100
AcDbLayerTableRecord
  2
0
 70
0
  6
CONTINUOUS
  0
ENDTAB
  0
TABLE
  2
STYLE
  5
3
330
0
100
AcDbSymbolTable
 70
     1
  0
STYLE
  5
11
330
3
100
AcDbSymbolTableRecord
100
AcDbTextStyleTableRecord
  2
STANDARD
 70
     0
 40
0.0
 41
1.0
 50
0.0
 71
     0
 42
2.5
  3
txt
  4

  0
ENDTAB
  0
TABLE
  2
VIEW
  5
6
330
0
100
AcDbSymbolTable
 70
     0
  0
ENDTAB
  0
TABLE
  2
UCS
  5
7
330
0
100
AcDbSymbolTable
 70
     0
  0
ENDTAB
  0
TABLE
  2
APPID
  5
9
330
0
100
AcDbSymbolTable
 70
     2
  0
APPID
  5
12
330
9
100
AcDbSymbolTableRecord
100
AcDbRegAppTableRecord
  2
ACAD
 70
     0
  0
ENDTAB
  0
TABLE
  2
DIMSTYLE
  5
A
330
0
100
AcDbSymbolTable
 70
     1
  0
DIMSTYLE
105
27
330
A
100
AcDbSymbolTableRecord
100
AcDbDimStyleTableRecord
  2
ISO-25
 70
     0
  3

  4

  5

  6

  7

 40
1.0
 41
2.5
 42
0.625
 43
3.75
 44
1.25
 45
0.0
 46
0.0
 47
0.0
 48
0.0
140
2.5
141
2.5
142
0.0
143
0.03937007874016
144
1.0
145
0.0
146
1.0
147
0.625
 71
     0
 72
     0
 73
     0
 74
     0
 75
     0
 76
     0
 77
     1
 78
     8
170
     0
171
     3
172
     1
173
     0
174
     0
175
     0
176
     0
177
     0
178
     0
270
     2
271
     2
272
     2
273
     2
274
     3
340
11
275
     0
280
     0
281
     0
282
     0
283
     0
284
     8
285
     0
286
     0
287
     3
288
     0
  0
ENDTAB
  0
TABLE
  2
BLOCK_RECORD
  5
1
330
0
100
AcDbSymbolTable
 70
     1
  0
BLOCK_RECORD
  5
1F
330
1
100
AcDbSymbolTableRecord
100
AcDbBlockTableRecord
  2
*MODEL_SPACE
  0
BLOCK_RECORD
  5
1B
330
1
100
AcDbSymbolTableRecord
100
AcDbBlockTableRecord
  2
*PAPER_SPACE
  0
ENDTAB
  0
ENDSEC
  0
SECTION
  2
BLOCKS
  0
BLOCK
  5
20
330
1F
100
AcDbEntity
  8
0
100
AcDbBlockBegin
  2
*MODEL_SPACE
 70
     0
 10
0.0
 20
0.0
 30
0.0
  3
*MODEL_SPACE
  1

  0
ENDBLK
  5
21
330
1F
100
AcDbEntity
  8
0
100
AcDbBlockEnd
  0
BLOCK
  5
1C
330
1B
100
AcDbEntity
 67
     1
  8
0
100
AcDbBlockBegin
  2
*PAPER_SPACE
  1

  0
ENDBLK
  5
1D
330
1B
100
AcDbEntity
 67
     1
  8
0
100
AcDbBlockEnd
  0
ENDSEC
  0
SECTION
  2
ENTITIES
  0
LWPOLYLINE
  5
100
100
AcDbEntity
  8
0
 62
7
100
AcDbPolyline
 90
73
 70
1
 10
33.987000
 20
41.357100
 30
0.0
 10
16.584000
 20
41.357100
 30
0.0
 10
16.194453
 20
41.278475
 30
0.0
 10
15.876625
 20
41.064100
 30
0.0
 10
15.662484
 20
40.746225
 30
0.0
 10
15.584000
 20
40.357100
 30
0.0
 10
15.584000
 20
32.035100
 30
0.0
 10
15.662484
 20
31.645975
 30
0.0
 10
15.876625
 20
31.328100
 30
0.0
 10
16.194453
 20
31.113725
 30
0.0
 10
16.584000
 20
31.035100
 30
0.0
 10
17.728000
 20
31.035100
 30
0.0
 10
17.553000
 20
20.211100
 30
0.0
 10
17.196500
 20
19.933475
 30
0.0
 10
16.735000
 20
19.760100
 30
0.0
 10
14.749000
 20
19.404100
 30
0.0
 10
12.482141
 20
18.928444
 30
0.0
 10
9.022125
 20
17.843600
 30
0.0
 10
7.105572
 20
17.039745
 30
0.0
 10
5.203797
 20
16.044006
 30
0.0
 10
3.421154
 20
14.843190
 30
0.0
 10
1.862000
 20
13.424100
 30
0.0
 10
0.739910
 20
11.858711
 30
0.0
 10
0.133281
 20
10.212053
 30
0.0
 10
0.013449
 20
8.537012
 30
0.0
 10
0.351750
 20
6.886475
 30
0.0
 10
1.119520
 20
5.313329
 30
0.0
 10
2.288094
 20
3.870459
 30
0.0
 10
3.828809
 20
2.610754
 30
0.0
 10
5.713000
 20
1.587100
 30
0.0
 10
8.078062
 20
0.863006
 30
0.0
 10
10.880000
 20
0.469100
 30
0.0
 10
13.929437
 20
0.357194
 30
0.0
 10
17.037000
 20
0.479100
 30
0.0
 10
20.000906
 20
0.781787
 30
0.0
 10
22.642500
 20
1.206350
 30
0.0
 10
24.773344
 20
1.693537
 30
0.0
 10
26.205000
 20
2.184100
 30
0.0
 10
28.789375
 20
3.431850
 30
0.0
 10
31.283000
 20
5.005100
 30
0.0
 10
32.457344
 20
6.073694
 30
0.0
 10
33.415500
 20
7.318350
 30
0.0
 10
34.099156
 20
8.765131
 30
0.0
 10
34.450000
 20
10.440100
 30
0.0
 10
34.453000
 20
10.567100
 30
0.0
 10
33.722000
 20
31.035100
 30
0.0
 10
34.985000
 20
31.035100
 30
0.0
 10
35.374125
 20
31.113725
 30
0.0
 10
35.692000
 20
31.328100
 30
0.0
 10
35.906375
 20
31.645975
 30
0.0
 10
35.985000
 20
32.035100
 30
0.0
 10
35.985000
 20
35.111100
 30
0.0
 10
37.269016
 20
35.207350
 30
0.0
 10
38.436875
 20
35.516600
 30
0.0
 10
39.451547
 20
36.024600
 30
0.0
 10
40.276000
 20
36.717100
 30
0.0
 10
41.075000
 20
37.959850
 30
0.0
 10
41.664000
 20
39.657100
 30
0.0
 10
41.914422
 20
41.014475
 30
0.0
 10
42.016625
 20
42.422850
 30
0.0
 10
41.957766
 20
43.801600
 30
0.0
 10
41.725000
 20
45.070100
 30
0.0
 10
41.398484
 20
45.971741
 30
0.0
 10
40.951125
 20
46.732475
 30
0.0
 10
40.389203
 20
47.331772
 30
0.0
 10
39.719000
 20
47.749100
 30
0.0
 10
38.589500
 20
47.999225
 30
0.0
 10
37.211000
 20
47.767100
 30
0.0
 10
36.543906
 20
47.449241
 30
0.0
 10
35.940750
 20
46.977725
 30
0.0
 10
34.954000
 20
45.613100
 30
0.0
 10
34.279250
 20
43.671475
 30
0.0
 10
33.987000
 20
41.357100
 30
0.0
  0
LWPOLYLINE
  5
101
100
AcDbEntity
  8
0
 62
7
100
AcDbPolyline
 90
36
 70
1
 10
31.721000
 20
31.035100
 30
0.0
 10
32.452000
 20
10.562100
 30
0.0
 10
32.175406
 20
9.334100
 30
0.0
 10
31.650000
 20
8.276350
 30
0.0
 10
30.925094
 20
7.365975
 30
0.0
 10
30.050000
 20
6.580100
 30
0.0
 10
27.748625
 20
5.139475
 30
0.0
 10
25.364000
 20
3.998100
 30
0.0
 10
24.040812
 20
3.553256
 30
0.0
 10
22.070750
 20
3.120600
 30
0.0
 10
16.892000
 20
2.474100
 30
0.0
 10
14.043547
 20
2.351928
 30
0.0
 10
11.247125
 20
2.431225
 30
0.0
 10
8.677391
 20
2.768709
 30
0.0
 10
6.509000
 20
3.421100
 30
0.0
 10
5.100719
 20
4.173973
 30
0.0
 10
3.923625
 20
5.093522
 30
0.0
 10
3.006594
 20
6.143266
 30
0.0
 10
2.378500
 20
7.286725
 30
0.0
 10
2.068219
 20
8.487418
 30
0.0
 10
2.104625
 20
9.708866
 30
0.0
 10
2.516594
 20
10.914586
 30
0.0
 10
3.333000
 20
12.068100
 30
0.0
 10
4.747324
 20
13.351854
 30
0.0
 10
6.366281
 20
14.433319
 30
0.0
 10
8.094598
 20
15.325924
 30
0.0
 10
9.837000
 20
16.043100
 30
0.0
 10
12.982969
 20
17.004881
 30
0.0
 10
15.042000
 20
17.426100
 30
0.0
 10
16.453125
 20
17.644350
 30
0.0
 10
17.802000
 20
18.020100
 30
0.0
 10
18.781000
 20
18.616350
 30
0.0
 10
19.454000
 20
19.511100
 30
0.0
 10
19.548000
 20
19.919100
 30
0.0
 10
19.728000
 20
31.035100
 30
0.0
 10
31.721000
 20
31.035100
 30
0.0
  0
LWPOLYLINE
  5
102
100
AcDbEntity
  8
0
 62
7
100
AcDbPolyline
 90
5
 70
1
 10
33.985000
 20
33.035100
 30
0.0
 10
33.985000
 20
39.357100
 30
0.0
 10
17.584000
 20
39.357100
 30
0.0
 10
17.584000
 20
33.035100
 30
0.0
 10
33.985000
 20
33.035100
 30
0.0
  0
LWPOLYLINE
  5
103
100
AcDbEntity
  8
0
 62
7
100
AcDbPolyline
 90
21
 70
1
 10
35.985000
 20
37.108100
 30
0.0
 10
37.595500
 20
37.324100
 30
0.0
 10
38.263125
 20
37.629819
 30
0.0
 10
38.804000
 20
38.071100
 30
0.0
 10
39.336125
 20
38.945100
 30
0.0
 10
39.722000
 20
40.134100
 30
0.0
 10
40.021000
 20
42.386725
 30
0.0
 10
39.981031
 20
43.510084
 30
0.0
 10
39.795000
 20
44.544100
 30
0.0
 10
39.464500
 20
45.390100
 30
0.0
 10
38.909000
 20
45.921100
 30
0.0
 10
38.435625
 20
45.998975
 30
0.0
 10
37.858000
 20
45.875100
 30
0.0
 10
37.224000
 20
45.440350
 30
0.0
 10
36.737000
 20
44.707100
 30
0.0
 10
36.374094
 20
43.794928
 30
0.0
 10
36.128750
 20
42.746725
 30
0.0
 10
35.984000
 20
40.391100
 30
0.0
 10
35.985000
 20
40.365100
 30
0.0
 10
35.985000
 20
40.352100
 30
0.0
 10
35.985000
 20
37.108100
 30
0.0
  0
ENDSEC
  0
SECTION
  2
OBJECTS
  0
DICTIONARY
  5
C
330
0
100
AcDbDictionary
  3
ACAD_GROUP
350
D
  3
ACAD_MLINESTYLE
350
17
  0
DICTIONARY
  5
D
330
C
100
AcDbDictionary
  0
DICTIONARY
  5
1A
330
C
100
AcDbDictionary
  0
DICTIONARY
  5
17
330
C
100
AcDbDictionary
  3
STANDARD
350
18
  0
DICTIONARY
  5
19
330
C
100
AcDbDictionary
  0
ENDSEC
  0
EOF
