  0
SECTION
  2
HEADER
  9
$ACADVER
  1
AC1014
  9
$HANDSEED
  5
FFFF
  9
$INSUNITS
 70
     0
  9
$MEASUREMENT
 70
     1
  0
ENDSEC
  0
SECTION
  2
TABLES
  0
TABLE
  2
VPORT
  5
8
330
0
100
AcDbSymbolTable
 70
     4
  0
VPORT
  5
2E
330
8
100
AcDbSymbolTableRecord
100
AcDbViewportTableRecord
  2
*ACTIVE
 70
     0
 10
0.0
 20
0.0
 11
1.0
 21
1.0
 12
210.0
 22
148.5
 13
0.0
 23
0.0
 14
10.0
 24
10.0
 15
10.0
 25
10.0
 16
0.0
 26
0.0
 36
1.0
 17
0.0
 27
0.0
 37
0.0
 40
341.0
 41
1.24
 42
50.0
 43
0.0
 44
0.0
 50
0.0
 51
0.0
 71
     0
 72
   100
 73
     1
 74
     3
 75
     0
 76
     0
 77
     0
 78
     0
  0
ENDTAB
  0
TABLE
  2
LTYPE
  5
5
330
0
100
AcDbSymbolTable
 70
     1
  0
LTYPE
  5
14
330
5
100
AcDbSymbolTableRecord
100
AcDbLinetypeTableRecord
  2
BYBLOCK
 70
     0
  3

 72
    65
 73
     0
 40
0.0
  0
LTYPE
  5
15
330
5
100
AcDbSymbolTableRecord
100
AcDbLinetypeTableRecord
  2
BYLAYER
 70
     0
  3

 72
    65
 73
     0
 40
0.0
  0
LTYPE
  5
16
330
5
100
AcDbSymbolTableRecord
100
AcDbLinetypeTableRecord
  2
CONTINUOUS
 70
     0
  3
Solid line
 72
    65
 73
     0
 40
0.0
  0
ENDTAB
  0
TABLE
  2
LAYER
  5
2
100
AcDbSymbolTable
 70
1
  0
LAYER
  5
50
100
AcDbSymbolTableRecord
100
AcDbLayerTableRecord
  2
0
 70
0
  6
CONTINUOUS
  0
ENDTAB
  0
TABLE
  2
STYLE
  5
3
330
0
100
AcDbSymbolTable
 70
     1
  0
STYLE
  5
11
330
3
100
AcDbSymbolTableRecord
100
AcDbTextStyleTableRecord
  2
STANDARD
 70
     0
 40
0.0
 41
1.0
 50
0.0
 71
     0
 42
2.5
  3
txt
  4

  0
ENDTAB
  0
TABLE
  2
VIEW
  5
6
330
0
100
AcDbSymbolTable
 70
     0
  0
ENDTAB
  0
TABLE
  2
UCS
  5
7
330
0
100
AcDbSymbolTable
 70
     0
  0
ENDTAB
  0
TABLE
  2
APPID
  5
9
330
0
100
AcDbSymbolTable
 70
     2
  0
APPID
  5
12
330
9
100
AcDbSymbolTableRecord
100
AcDbRegAppTableRecord
  2
ACAD
 70
     0
  0
ENDTAB
  0
TABLE
  2
DIMSTYLE
  5
A
330
0
100
AcDbSymbolTable
 70
     1
  0
DIMSTYLE
105
27
330
A
100
AcDbSymbolTableRecord
100
AcDbDimStyleTableRecord
  2
ISO-25
 70
     0
  3

  4

  5

  6

  7

 40
1.0
 41
2.5
 42
0.625
 43
3.75
 44
1.25
 45
0.0
 46
0.0
 47
0.0
 48
0.0
140
2.5
141
2.5
142
0.0
143
0.03937007874016
144
1.0
145
0.0
146
1.0
147
0.625
 71
     0
 72
     0
 73
     0
 74
     0
 75
     0
 76
     0
 77
     1
 78
     8
170
     0
171
     3
172
     1
173
     0
174
     0
175
     0
176
     0
177
     0
178
     0
270
     2
271
     2
272
     2
273
     2
274
     3
340
11
275
     0
280
     0
281
     0
282
     0
283
     0
284
     8
285
     0
286
     0
287
     3
288
     0
  0
ENDTAB
  0
TABLE
  2
BLOCK_RECORD
  5
1
330
0
100
AcDbSymbolTable
 70
     1
  0
BLOCK_RECORD
  5
1F
330
1
100
AcDbSymbolTableRecord
100
AcDbBlockTableRecord
  2
*MODEL_SPACE
  0
BLOCK_RECORD
  5
1B
330
1
100
AcDbSymbolTableRecord
100
AcDbBlockTableRecord
  2
*PAPER_SPACE
  0
ENDTAB
  0
ENDSEC
  0
SECTION
  2
BLOCKS
  0
BLOCK
  5
20
330
1F
100
AcDbEntity
  8
0
100
AcDbBlockBegin
  2
*MODEL_SPACE
 70
     0
 10
0.0
 20
0.0
 30
0.0
  3
*MODEL_SPACE
  1

  0
ENDBLK
  5
21
330
1F
100
AcDbEntity
  8
0
100
AcDbBlockEnd
  0
BLOCK
  5
1C
330
1B
100
AcDbEntity
 67
     1
  8
0
100
AcDbBlockBegin
  2
*PAPER_SPACE
  1

  0
ENDBLK
  5
1D
330
1B
100
AcDbEntity
 67
     1
  8
0
100
AcDbBlockEnd
  0
ENDSEC
  0
SECTION
  2
ENTITIES
  0
LWPOLYLINE
  5
100
100
AcDbEntity
  8
0
 62
7
100
AcDbPolyline
 90
67
 70
1
 10
16.874323
 20
44.054661
 30
0.0
 10
14.897161
 20
43.589225
 30
0.0
 10
13.071688
 20
42.791174
 30
0.0
 10
11.432402
 20
41.695020
 30
0.0
 10
10.013805
 20
40.335277
 30
0.0
 10
8.850396
 20
38.746454
 30
0.0
 10
7.976675
 20
36.963065
 30
0.0
 10
7.427142
 20
35.019621
 30
0.0
 10
7.236298
 20
32.950633
 30
0.0
 10
7.428861
 20
30.872393
 30
0.0
 10
7.983300
 20
28.920998
 30
0.0
 10
8.864740
 20
27.131415
 30
0.0
 10
10.038305
 20
25.538614
 30
0.0
 10
8.021425
 20
23.637109
 30
0.0
 10
6.419296
 20
21.366604
 30
0.0
 10
6.419296
 20
21.366604
 30
0.0
 10
2.868287
 20
24.917613
 30
0.0
 10
2.337786
 20
25.137363
 30
0.0
 10
1.807284
 20
24.917613
 30
0.0
 10
0.220280
 20
23.330609
 30
0.0
 10
0.000530
 20
22.800107
 30
0.0
 10
0.220280
 20
22.269606
 30
0.0
 10
4.958292
 20
17.530594
 30
0.0
 10
4.724917
 20
16.085965
 30
0.0
 10
4.645291
 20
14.595586
 30
0.0
 10
4.925978
 20
11.814909
 30
0.0
 10
5.730904
 20
9.224276
 30
0.0
 10
7.004370
 20
6.879385
 30
0.0
 10
8.690677
 20
4.835936
 30
0.0
 10
10.734125
 20
3.149629
 30
0.0
 10
13.079016
 20
1.876163
 30
0.0
 10
15.669650
 20
1.071237
 30
0.0
 10
18.450327
 20
0.790551
 30
0.0
 10
21.231004
 20
1.071237
 30
0.0
 10
23.821637
 20
1.876163
 30
0.0
 10
26.166528
 20
3.149629
 30
0.0
 10
28.209976
 20
4.835936
 30
0.0
 10
29.896283
 20
6.879385
 30
0.0
 10
31.169750
 20
9.224276
 30
0.0
 10
31.974675
 20
11.814909
 30
0.0
 10
32.255362
 20
14.595586
 30
0.0
 10
32.175737
 20
16.086090
 30
0.0
 10
31.942361
 20
17.531594
 30
0.0
 10
36.681373
 20
22.269606
 30
0.0
 10
36.901124
 20
22.800107
 30
0.0
 10
36.681373
 20
23.330609
 30
0.0
 10
35.093369
 20
24.917613
 30
0.0
 10
34.563368
 20
25.137363
 30
0.0
 10
34.033366
 20
24.917613
 30
0.0
 10
30.481357
 20
21.366604
 30
0.0
 10
28.879353
 20
23.637109
 30
0.0
 10
26.863348
 20
25.538614
 30
0.0
 10
28.036335
 20
27.131415
 30
0.0
 10
28.917478
 20
28.920998
 30
0.0
 10
29.471808
 20
30.872393
 30
0.0
 10
29.664355
 20
32.950633
 30
0.0
 10
29.375558
 20
35.487936
 30
0.0
 10
28.552477
 20
37.821520
 30
0.0
 10
27.260083
 20
39.886416
 30
0.0
 10
25.563345
 20
41.617655
 30
0.0
 10
25.814345
 20
46.812668
 30
0.0
 10
25.671845
 20
47.289420
 30
0.0
 10
25.262344
 20
47.572670
 30
0.0
 10
20.124331
 20
48.972674
 30
0.0
 10
19.627330
 20
48.937174
 30
0.0
 10
19.262329
 20
48.598673
 30
0.0
 10
16.874323
 20
44.054661
 30
0.0
  0
LWPOLYLINE
  5
101
100
AcDbEntity
  8
0
 62
7
100
AcDbPolyline
 90
148
 70
1
 10
18.381326
 20
21.736604
 30
0.0
 10
18.450327
 20
21.736604
 30
0.0
 10
18.523327
 20
21.736604
 30
0.0
 10
18.581327
 20
21.737604
 30
0.0
 10
18.647327
 20
21.738604
 30
0.0
 10
18.712327
 20
21.739604
 30
0.0
 10
18.778327
 20
21.741604
 30
0.0
 10
18.811327
 20
21.742604
 30
0.0
 10
18.843328
 20
21.743604
 30
0.0
 10
18.883328
 20
21.744604
 30
0.0
 10
18.908328
 20
21.745604
 30
0.0
 10
18.955328
 20
21.747604
 30
0.0
 10
18.973328
 20
21.748604
 30
0.0
 10
19.038328
 20
21.751604
 30
0.0
 10
19.100328
 20
21.755604
 30
0.0
 10
19.170328
 20
21.759605
 30
0.0
 10
19.241329
 20
21.764605
 30
0.0
 10
19.297329
 20
21.768605
 30
0.0
 10
19.361329
 20
21.773605
 30
0.0
 10
19.426329
 20
21.778605
 30
0.0
 10
19.490329
 20
21.784605
 30
0.0
 10
19.554329
 20
21.790605
 30
0.0
 10
19.618330
 20
21.796605
 30
0.0
 10
19.682330
 20
21.803605
 30
0.0
 10
19.740330
 20
21.810605
 30
0.0
 10
19.877330
 20
21.826605
 30
0.0
 10
19.937330
 20
21.834605
 30
0.0
 10
20.000331
 20
21.842605
 30
0.0
 10
20.063331
 20
21.851605
 30
0.0
 10
20.126331
 20
21.861605
 30
0.0
 10
20.189331
 20
21.870605
 30
0.0
 10
20.252331
 20
21.880605
 30
0.0
 10
20.315331
 20
21.891605
 30
0.0
 10
20.378331
 20
21.901605
 30
0.0
 10
20.434332
 20
21.911605
 30
0.0
 10
20.572332
 20
21.937605
 30
0.0
 10
20.627332
 20
21.948605
 30
0.0
 10
20.690332
 20
21.960605
 30
0.0
 10
20.751332
 20
21.973605
 30
0.0
 10
20.813333
 20
21.986605
 30
0.0
 10
20.875333
 20
21.999605
 30
0.0
 10
20.937333
 20
22.013605
 30
0.0
 10
20.998333
 20
22.027605
 30
0.0
 10
21.049333
 20
22.039605
 30
0.0
 10
21.317334
 20
22.107605
 30
0.0
 10
21.364334
 20
22.119605
 30
0.0
 10
21.425334
 20
22.135605
 30
0.0
 10
21.485334
 20
22.152606
 30
0.0
 10
21.545334
 20
22.169606
 30
0.0
 10
21.587335
 20
22.181606
 30
0.0
 10
22.045336
 20
22.326606
 30
0.0
 10
22.082336
 20
22.338606
 30
0.0
 10
22.111336
 20
22.348606
 30
0.0
 10
24.059966
 20
23.239983
 30
0.0
 10
25.787345
 20
24.472611
 30
0.0
 10
26.949520
 20
23.490625
 30
0.0
 10
27.982226
 20
22.374481
 30
0.0
 10
28.872244
 20
21.137400
 30
0.0
 10
29.606355
 20
19.792599
 30
0.0
 10
29.829106
 20
19.514474
 30
0.0
 10
30.155356
 20
19.370598
 30
0.0
 10
30.511232
 20
19.394473
 30
0.0
 10
30.815358
 20
19.579599
 30
0.0
 10
34.563368
 20
23.326608
 30
0.0
 10
35.090369
 20
22.799607
 30
0.0
 10
30.586357
 20
18.296596
 30
0.0
 10
30.394107
 20
17.966845
 30
0.0
 10
30.389357
 20
17.584594
 30
0.0
 10
30.661983
 20
16.117465
 30
0.0
 10
30.755358
 20
14.595586
 30
0.0
 10
30.505164
 20
12.117090
 30
0.0
 10
29.787684
 20
9.807965
 30
0.0
 10
28.652569
 20
7.717864
 30
0.0
 10
27.149474
 20
5.896439
 30
0.0
 10
25.328049
 20
4.393343
 30
0.0
 10
23.237948
 20
3.258229
 30
0.0
 10
20.928823
 20
2.540749
 30
0.0
 10
18.450327
 20
2.290555
 30
0.0
 10
15.971830
 20
2.540749
 30
0.0
 10
13.662705
 20
3.258229
 30
0.0
 10
11.572604
 20
4.393343
 30
0.0
 10
9.751179
 20
5.896439
 30
0.0
 10
8.248084
 20
7.717864
 30
0.0
 10
7.112970
 20
9.807965
 30
0.0
 10
6.395489
 20
12.117090
 30
0.0
 10
6.145295
 20
14.595586
 30
0.0
 10
6.238670
 20
16.117465
 30
0.0
 10
6.511296
 20
17.584594
 30
0.0
 10
6.506546
 20
17.966845
 30
0.0
 10
6.314296
 20
18.296596
 30
0.0
 10
1.811284
 20
22.799607
 30
0.0
 10
2.337286
 20
23.326608
 30
0.0
 10
6.085295
 20
19.579599
 30
0.0
 10
6.389796
 20
19.394473
 30
0.0
 10
6.745297
 20
19.370598
 30
0.0
 10
7.071673
 20
19.514474
 30
0.0
 10
7.295298
 20
19.792599
 30
0.0
 10
8.028831
 20
21.137400
 30
0.0
 10
8.918552
 20
22.374481
 30
0.0
 10
9.951149
 20
23.490625
 30
0.0
 10
11.113308
 20
24.472611
 30
0.0
 10
13.077063
 20
23.107358
 30
0.0
 10
15.315319
 20
22.181606
 30
0.0
 10
15.355319
 20
22.169606
 30
0.0
 10
15.415319
 20
22.152606
 30
0.0
 10
15.475319
 20
22.135605
 30
0.0
 10
15.536319
 20
22.119605
 30
0.0
 10
15.582319
 20
22.107605
 30
0.0
 10
15.917320
 20
22.024605
 30
0.0
 10
15.964320
 20
22.013605
 30
0.0
 10
16.025320
 20
21.999605
 30
0.0
 10
16.087321
 20
21.986605
 30
0.0
 10
16.149321
 20
21.973605
 30
0.0
 10
16.211321
 20
21.960605
 30
0.0
 10
16.262321
 20
21.950605
 30
0.0
 10
16.466322
 20
21.911605
 30
0.0
 10
16.522322
 20
21.901605
 30
0.0
 10
16.585322
 20
21.891605
 30
0.0
 10
16.648322
 20
21.880605
 30
0.0
 10
16.711322
 20
21.870605
 30
0.0
 10
16.774322
 20
21.861605
 30
0.0
 10
16.837322
 20
21.851605
 30
0.0
 10
16.900323
 20
21.842605
 30
0.0
 10
16.964323
 20
21.834605
 30
0.0
 10
17.023323
 20
21.826605
 30
0.0
 10
17.160323
 20
21.810605
 30
0.0
 10
17.218323
 20
21.803605
 30
0.0
 10
17.282324
 20
21.796605
 30
0.0
 10
17.346324
 20
21.790605
 30
0.0
 10
17.410324
 20
21.784605
 30
0.0
 10
17.475324
 20
21.778605
 30
0.0
 10
17.539324
 20
21.773605
 30
0.0
 10
17.603324
 20
21.768605
 30
0.0
 10
17.668325
 20
21.763605
 30
0.0
 10
17.731325
 20
21.759605
 30
0.0
 10
17.802325
 20
21.755604
 30
0.0
 10
17.862325
 20
21.751604
 30
0.0
 10
17.927325
 20
21.748604
 30
0.0
 10
17.992325
 20
21.745604
 30
0.0
 10
18.057326
 20
21.743604
 30
0.0
 10
18.089326
 20
21.742604
 30
0.0
 10
18.123326
 20
21.741604
 30
0.0
 10
18.161326
 20
21.740604
 30
0.0
 10
18.188326
 20
21.739604
 30
0.0
 10
18.233326
 20
21.738604
 30
0.0
 10
18.253326
 20
21.738604
 30
0.0
 10
18.319326
 20
21.737604
 30
0.0
 10
18.381326
 20
21.736604
 30
0.0
  0
LWPOLYLINE
  5
102
100
AcDbEntity
  8
0
 62
7
100
AcDbPolyline
 90
250
 70
1
 10
18.387326
 20
42.664658
 30
0.0
 10
18.323326
 20
42.663658
 30
0.0
 10
18.260326
 20
42.662658
 30
0.0
 10
18.197326
 20
42.661658
 30
0.0
 10
18.134326
 20
42.659658
 30
0.0
 10
18.071326
 20
42.657658
 30
0.0
 10
18.008325
 20
42.654658
 30
0.0
 10
17.945325
 20
42.651658
 30
0.0
 10
17.882325
 20
42.648658
 30
0.0
 10
17.819325
 20
42.644658
 30
0.0
 10
17.757325
 20
42.640658
 30
0.0
 10
17.694325
 20
42.635658
 30
0.0
 10
17.632324
 20
42.630658
 30
0.0
 10
17.601324
 20
42.627658
 30
0.0
 10
17.569324
 20
42.625658
 30
0.0
 10
17.539324
 20
42.622658
 30
0.0
 10
17.507324
 20
42.619658
 30
0.0
 10
17.477324
 20
42.616658
 30
0.0
 10
17.445324
 20
42.613658
 30
0.0
 10
15.667140
 20
42.259727
 30
0.0
 10
14.021565
 20
41.597405
 30
0.0
 10
12.540804
 20
40.658895
 30
0.0
 10
11.257058
 20
39.476400
 30
0.0
 10
10.202532
 20
38.082123
 30
0.0
 10
9.409429
 20
36.508267
 30
0.0
 10
8.909951
 20
34.787036
 30
0.0
 10
8.736302
 20
32.950633
 30
0.0
 10
8.941459
 20
30.956925
 30
0.0
 10
9.529304
 20
29.102998
 30
0.0
 10
10.458400
 20
27.430385
 30
0.0
 10
11.687309
 20
25.980615
 30
0.0
 10
11.695309
 20
25.972615
 30
0.0
 10
12.685343
 20
25.134082
 30
0.0
 10
13.782065
 20
24.431861
 30
0.0
 10
14.972161
 20
23.879266
 30
0.0
 10
16.242321
 20
23.489609
 30
0.0
 10
16.304321
 20
23.474609
 30
0.0
 10
16.362321
 20
23.461609
 30
0.0
 10
16.421321
 20
23.449609
 30
0.0
 10
16.480322
 20
23.436609
 30
0.0
 10
16.538322
 20
23.424609
 30
0.0
 10
16.597322
 20
23.413609
 30
0.0
 10
16.656322
 20
23.402609
 30
0.0
 10
16.716322
 20
23.391609
 30
0.0
 10
16.755322
 20
23.384609
 30
0.0
 10
16.775322
 20
23.380609
 30
0.0
 10
16.814322
 20
23.374609
 30
0.0
 10
16.834322
 20
23.370609
 30
0.0
 10
16.873323
 20
23.364609
 30
0.0
 10
16.894323
 20
23.360609
 30
0.0
 10
16.932323
 20
23.354609
 30
0.0
 10
16.954323
 20
23.351609
 30
0.0
 10
16.991323
 20
23.345609
 30
0.0
 10
17.014323
 20
23.342609
 30
0.0
 10
17.050323
 20
23.336609
 30
0.0
 10
17.074323
 20
23.333609
 30
0.0
 10
17.109323
 20
23.328608
 30
0.0
 10
17.134323
 20
23.325608
 30
0.0
 10
17.169323
 20
23.320608
 30
0.0
 10
17.194323
 20
23.317608
 30
0.0
 10
17.229323
 20
23.312608
 30
0.0
 10
17.254324
 20
23.309608
 30
0.0
 10
17.289324
 20
23.305608
 30
0.0
 10
17.315324
 20
23.302608
 30
0.0
 10
17.349324
 20
23.298608
 30
0.0
 10
17.375324
 20
23.295608
 30
0.0
 10
17.409324
 20
23.291608
 30
0.0
 10
17.436324
 20
23.289608
 30
0.0
 10
17.469324
 20
23.285608
 30
0.0
 10
17.530324
 20
23.279608
 30
0.0
 10
17.590324
 20
23.274608
 30
0.0
 10
17.651325
 20
23.269608
 30
0.0
 10
17.712325
 20
23.264608
 30
0.0
 10
17.773325
 20
23.259608
 30
0.0
 10
17.834325
 20
23.255608
 30
0.0
 10
17.895325
 20
23.252608
 30
0.0
 10
17.956325
 20
23.248608
 30
0.0
 10
18.017325
 20
23.246608
 30
0.0
 10
18.079326
 20
23.243608
 30
0.0
 10
18.141326
 20
23.241608
 30
0.0
 10
18.202326
 20
23.239608
 30
0.0
 10
18.264326
 20
23.238608
 30
0.0
 10
18.326326
 20
23.237608
 30
0.0
 10
18.388326
 20
23.236608
 30
0.0
 10
18.450327
 20
23.236608
 30
0.0
 10
18.512327
 20
23.236608
 30
0.0
 10
18.574327
 20
23.237608
 30
0.0
 10
18.636327
 20
23.238608
 30
0.0
 10
18.698327
 20
23.239608
 30
0.0
 10
18.760327
 20
23.241608
 30
0.0
 10
18.821328
 20
23.243608
 30
0.0
 10
18.883328
 20
23.246608
 30
0.0
 10
18.944328
 20
23.248608
 30
0.0
 10
19.005328
 20
23.252608
 30
0.0
 10
19.067328
 20
23.255608
 30
0.0
 10
19.128328
 20
23.259608
 30
0.0
 10
19.189328
 20
23.264608
 30
0.0
 10
19.249329
 20
23.269608
 30
0.0
 10
19.310329
 20
23.274608
 30
0.0
 10
19.371329
 20
23.279608
 30
0.0
 10
19.431329
 20
23.285608
 30
0.0
 10
19.464329
 20
23.289608
 30
0.0
 10
19.491329
 20
23.291608
 30
0.0
 10
19.525329
 20
23.295608
 30
0.0
 10
19.552329
 20
23.298608
 30
0.0
 10
19.586329
 20
23.302608
 30
0.0
 10
19.612330
 20
23.305608
 30
0.0
 10
19.646330
 20
23.309608
 30
0.0
 10
19.672330
 20
23.312608
 30
0.0
 10
19.706330
 20
23.317608
 30
0.0
 10
19.731330
 20
23.320608
 30
0.0
 10
19.767330
 20
23.325608
 30
0.0
 10
19.791330
 20
23.328608
 30
0.0
 10
19.827330
 20
23.333609
 30
0.0
 10
19.850330
 20
23.336609
 30
0.0
 10
19.887330
 20
23.342609
 30
0.0
 10
19.910330
 20
23.345609
 30
0.0
 10
19.946330
 20
23.351609
 30
0.0
 10
19.969330
 20
23.354609
 30
0.0
 10
20.006331
 20
23.360609
 30
0.0
 10
20.028331
 20
23.364609
 30
0.0
 10
20.066331
 20
23.370609
 30
0.0
 10
20.086331
 20
23.374609
 30
0.0
 10
20.125331
 20
23.380609
 30
0.0
 10
20.145331
 20
23.384609
 30
0.0
 10
20.185331
 20
23.391609
 30
0.0
 10
20.244331
 20
23.402609
 30
0.0
 10
20.303331
 20
23.413609
 30
0.0
 10
20.362331
 20
23.424609
 30
0.0
 10
20.421332
 20
23.436609
 30
0.0
 10
20.479332
 20
23.449609
 30
0.0
 10
20.538332
 20
23.461609
 30
0.0
 10
20.603332
 20
23.476609
 30
0.0
 10
20.658332
 20
23.489609
 30
0.0
 10
21.928914
 20
23.879266
 30
0.0
 10
23.118963
 20
24.431861
 30
0.0
 10
24.215451
 20
25.134082
 30
0.0
 10
25.205344
 20
25.972615
 30
0.0
 10
25.214344
 20
25.980615
 30
0.0
 10
26.442675
 20
27.430385
 30
0.0
 10
27.371474
 20
29.102998
 30
0.0
 10
27.959210
 20
30.956925
 30
0.0
 10
28.164351
 20
32.950633
 30
0.0
 10
27.894397
 20
35.232311
 30
0.0
 10
27.126724
 20
37.320769
 30
0.0
 10
25.924611
 20
39.152914
 30
0.0
 10
24.351342
 20
40.665653
 30
0.0
 10
24.340342
 20
40.673653
 30
0.0
 10
23.506339
 20
41.245654
 30
0.0
 10
23.459339
 20
41.273654
 30
0.0
 10
23.418339
 20
41.298654
 30
0.0
 10
23.379339
 20
41.320654
 30
0.0
 10
23.338339
 20
41.345654
 30
0.0
 10
23.294339
 20
41.370654
 30
0.0
 10
23.247339
 20
41.397655
 30
0.0
 10
23.219339
 20
41.413655
 30
0.0
 10
23.173339
 20
41.439655
 30
0.0
 10
23.127338
 20
41.464655
 30
0.0
 10
23.083338
 20
41.488655
 30
0.0
 10
23.035338
 20
41.514655
 30
0.0
 10
22.987338
 20
41.540655
 30
0.0
 10
22.966338
 20
41.551655
 30
0.0
 10
22.918338
 20
41.576655
 30
0.0
 10
22.870338
 20
41.601655
 30
0.0
 10
22.822338
 20
41.626655
 30
0.0
 10
22.773338
 20
41.650655
 30
0.0
 10
22.722337
 20
41.675655
 30
0.0
 10
22.707337
 20
41.683655
 30
0.0
 10
22.658337
 20
41.707655
 30
0.0
 10
22.607337
 20
41.731655
 30
0.0
 10
22.556337
 20
41.755655
 30
0.0
 10
22.506337
 20
41.778655
 30
0.0
 10
22.442337
 20
41.807656
 30
0.0
 10
22.392337
 20
41.830656
 30
0.0
 10
22.338336
 20
41.853656
 30
0.0
 10
22.279336
 20
41.879656
 30
0.0
 10
22.225336
 20
41.902656
 30
0.0
 10
22.173336
 20
41.924656
 30
0.0
 10
22.120336
 20
41.946656
 30
0.0
 10
22.066336
 20
41.968656
 30
0.0
 10
22.006336
 20
41.992656
 30
0.0
 10
21.952335
 20
42.013656
 30
0.0
 10
21.899335
 20
42.033656
 30
0.0
 10
21.844335
 20
42.054656
 30
0.0
 10
21.788335
 20
42.075656
 30
0.0
 10
21.728335
 20
42.096656
 30
0.0
 10
21.674335
 20
42.115656
 30
0.0
 10
21.621335
 20
42.134656
 30
0.0
 10
21.564334
 20
42.153656
 30
0.0
 10
21.505334
 20
42.173656
 30
0.0
 10
21.447334
 20
42.192657
 30
0.0
 10
21.392334
 20
42.210657
 30
0.0
 10
21.337334
 20
42.227657
 30
0.0
 10
21.280334
 20
42.245657
 30
0.0
 10
21.219334
 20
42.263657
 30
0.0
 10
21.161333
 20
42.280657
 30
0.0
 10
21.106333
 20
42.296657
 30
0.0
 10
21.050333
 20
42.311657
 30
0.0
 10
20.992333
 20
42.327657
 30
0.0
 10
20.938333
 20
42.342657
 30
0.0
 10
20.872333
 20
42.359657
 30
0.0
 10
20.817333
 20
42.373657
 30
0.0
 10
20.760332
 20
42.387657
 30
0.0
 10
20.697332
 20
42.402657
 30
0.0
 10
20.648332
 20
42.414657
 30
0.0
 10
20.591332
 20
42.427657
 30
0.0
 10
20.579332
 20
42.430657
 30
0.0
 10
20.524332
 20
42.442657
 30
0.0
 10
20.466332
 20
42.454657
 30
0.0
 10
20.410332
 20
42.466657
 30
0.0
 10
20.354331
 20
42.477657
 30
0.0
 10
20.296331
 20
42.488657
 30
0.0
 10
20.283331
 20
42.491657
 30
0.0
 10
20.228331
 20
42.501657
 30
0.0
 10
20.166331
 20
42.513657
 30
0.0
 10
20.114331
 20
42.522657
 30
0.0
 10
20.057331
 20
42.531657
 30
0.0
 10
20.041331
 20
42.534657
 30
0.0
 10
19.985330
 20
42.543657
 30
0.0
 10
19.928330
 20
42.552657
 30
0.0
 10
19.870330
 20
42.561657
 30
0.0
 10
19.814330
 20
42.569657
 30
0.0
 10
19.757330
 20
42.577658
 30
0.0
 10
19.740330
 20
42.579658
 30
0.0
 10
19.683330
 20
42.586658
 30
0.0
 10
19.626330
 20
42.593658
 30
0.0
 10
19.569329
 20
42.600658
 30
0.0
 10
19.512329
 20
42.607658
 30
0.0
 10
19.493329
 20
42.609658
 30
0.0
 10
19.435329
 20
42.615658
 30
0.0
 10
19.378329
 20
42.620658
 30
0.0
 10
19.315329
 20
42.626658
 30
0.0
 10
19.264329
 20
42.630658
 30
0.0
 10
19.207328
 20
42.635658
 30
0.0
 10
19.187328
 20
42.636658
 30
0.0
 10
19.129328
 20
42.641658
 30
0.0
 10
19.071328
 20
42.644658
 30
0.0
 10
19.014328
 20
42.648658
 30
0.0
 10
18.956328
 20
42.651658
 30
0.0
 10
18.898328
 20
42.654658
 30
0.0
 10
18.878328
 20
42.655658
 30
0.0
 10
18.820328
 20
42.657658
 30
0.0
 10
18.762327
 20
42.659658
 30
0.0
 10
18.704327
 20
42.661658
 30
0.0
 10
18.646327
 20
42.662658
 30
0.0
 10
18.588327
 20
42.663658
 30
0.0
 10
18.566327
 20
42.663658
 30
0.0
 10
18.508327
 20
42.664658
 30
0.0
 10
18.450327
 20
42.664658
 30
0.0
 10
18.387326
 20
42.664658
 30
0.0
  0
LWPOLYLINE
  5
103
100
AcDbEntity
  8
0
 62
7
100
AcDbPolyline
 90
60
 70
1
 10
18.626327
 20
44.163662
 30
0.0
 10
20.811333
 20
43.915661
 30
0.0
 10
20.815333
 20
43.914661
 30
0.0
 10
20.942333
 20
43.886661
 30
0.0
 10
20.950333
 20
43.884661
 30
0.0
 10
21.074333
 20
43.855661
 30
0.0
 10
21.117333
 20
43.845661
 30
0.0
 10
21.184334
 20
43.828661
 30
0.0
 10
21.251334
 20
43.811661
 30
0.0
 10
21.318334
 20
43.793661
 30
0.0
 10
21.385334
 20
43.775661
 30
0.0
 10
21.452334
 20
43.757661
 30
0.0
 10
21.519334
 20
43.738660
 30
0.0
 10
21.585335
 20
43.719660
 30
0.0
 10
21.651335
 20
43.700660
 30
0.0
 10
21.717335
 20
43.680660
 30
0.0
 10
21.783335
 20
43.660660
 30
0.0
 10
21.849335
 20
43.639660
 30
0.0
 10
21.915335
 20
43.618660
 30
0.0
 10
21.980336
 20
43.596660
 30
0.0
 10
22.045336
 20
43.574660
 30
0.0
 10
22.110336
 20
43.552660
 30
0.0
 10
22.175336
 20
43.530660
 30
0.0
 10
22.240336
 20
43.507660
 30
0.0
 10
22.304336
 20
43.483660
 30
0.0
 10
22.368337
 20
43.459660
 30
0.0
 10
22.433337
 20
43.435660
 30
0.0
 10
22.497337
 20
43.411660
 30
0.0
 10
22.560337
 20
43.386660
 30
0.0
 10
22.624337
 20
43.360659
 30
0.0
 10
22.687337
 20
43.335659
 30
0.0
 10
22.750338
 20
43.309659
 30
0.0
 10
22.772338
 20
43.300659
 30
0.0
 10
22.813338
 20
43.282659
 30
0.0
 10
22.853338
 20
43.265659
 30
0.0
 10
22.885338
 20
43.252659
 30
0.0
 10
22.939338
 20
43.228659
 30
0.0
 10
22.975338
 20
43.212659
 30
0.0
 10
23.008338
 20
43.198659
 30
0.0
 10
23.063338
 20
43.173659
 30
0.0
 10
23.096338
 20
43.158659
 30
0.0
 10
23.130338
 20
43.142659
 30
0.0
 10
23.187339
 20
43.116659
 30
0.0
 10
23.216339
 20
43.102659
 30
0.0
 10
23.252339
 20
43.085659
 30
0.0
 10
23.310339
 20
43.058659
 30
0.0
 10
23.335339
 20
43.045659
 30
0.0
 10
23.372339
 20
43.027659
 30
0.0
 10
23.432339
 20
42.998659
 30
0.0
 10
23.438339
 20
42.995659
 30
0.0
 10
23.549340
 20
42.939658
 30
0.0
 10
23.557340
 20
42.934658
 30
0.0
 10
23.671340
 20
42.876658
 30
0.0
 10
23.676340
 20
42.873658
 30
0.0
 10
23.792340
 20
42.810658
 30
0.0
 10
23.794340
 20
42.809658
 30
0.0
 10
24.110341
 20
42.631658
 30
0.0
 10
24.287341
 20
46.283667
 30
0.0
 10
20.310331
 20
47.367670
 30
0.0
 10
18.626327
 20
44.163662
 30
0.0
  0
ENDSEC
  0
SECTION
  2
OBJECTS
  0
DICTIONARY
  5
C
330
0
100
AcDbDictionary
  3
ACAD_GROUP
350
D
  3
ACAD_MLINESTYLE
350
17
  0
DICTIONARY
  5
D
330
C
100
AcDbDictionary
  0
DICTIONARY
  5
1A
330
C
100
AcDbDictionary
  0
DICTIONARY
  5
17
330
C
100
AcDbDictionary
  3
STANDARD
350
18
  0
DICTIONARY
  5
19
330
C
100
AcDbDictionary
  0
ENDSEC
  0
EOF
