  0
SECTION
  2
HEADER
  9
$ACADVER
  1
AC1014
  9
$HANDSEED
  5
FFFF
  9
$INSUNITS
 70
     0
  9
$MEASUREMENT
 70
     1
  0
ENDSEC
  0
SECTION
  2
TABLES
  0
TABLE
  2
VPORT
  5
8
330
0
100
AcDbSymbolTable
 70
     4
  0
VPORT
  5
2E
330
8
100
AcDbSymbolTableRecord
100
AcDbViewportTableRecord
  2
*ACTIVE
 70
     0
 10
0.0
 20
0.0
 11
1.0
 21
1.0
 12
210.0
 22
148.5
 13
0.0
 23
0.0
 14
10.0
 24
10.0
 15
10.0
 25
10.0
 16
0.0
 26
0.0
 36
1.0
 17
0.0
 27
0.0
 37
0.0
 40
341.0
 41
1.24
 42
50.0
 43
0.0
 44
0.0
 50
0.0
 51
0.0
 71
     0
 72
   100
 73
     1
 74
     3
 75
     0
 76
     0
 77
     0
 78
     0
  0
ENDTAB
  0
TABLE
  2
LTYPE
  5
5
330
0
100
AcDbSymbolTable
 70
     1
  0
LTYPE
  5
14
330
5
100
AcDbSymbolTableRecord
100
AcDbLinetypeTableRecord
  2
BYBLOCK
 70
     0
  3

 72
    65
 73
     0
 40
0.0
  0
LTYPE
  5
15
330
5
100
AcDbSymbolTableRecord
100
AcDbLinetypeTableRecord
  2
BYLAYER
 70
     0
  3

 72
    65
 73
     0
 40
0.0
  0
LTYPE
  5
16
330
5
100
AcDbSymbolTableRecord
100
AcDbLinetypeTableRecord
  2
CONTINUOUS
 70
     0
  3
Solid line
 72
    65
 73
     0
 40
0.0
  0
ENDTAB
  0
TABLE
  2
LAYER
  5
2
100
AcDbSymbolTable
 70
1
  0
LAYER
  5
50
100
AcDbSymbolTableRecord
100
AcDbLayerTableRecord
  2
0
 70
0
  6
CONTINUOUS
  0
ENDTAB
  0
TABLE
  2
STYLE
  5
3
330
0
100
AcDbSymbolTable
 70
     1
  0
STYLE
  5
11
330
3
100
AcDbSymbolTableRecord
100
AcDbTextStyleTableRecord
  2
STANDARD
 70
     0
 40
0.0
 41
1.0
 50
0.0
 71
     0
 42
2.5
  3
txt
  4

  0
ENDTAB
  0
TABLE
  2
VIEW
  5
6
330
0
100
AcDbSymbolTable
 70
     0
  0
ENDTAB
  0
TABLE
  2
UCS
  5
7
330
0
100
AcDbSymbolTable
 70
     0
  0
ENDTAB
  0
TABLE
  2
APPID
  5
9
330
0
100
AcDbSymbolTable
 70
     2
  0
APPID
  5
12
330
9
100
AcDbSymbolTableRecord
100
AcDbRegAppTableRecord
  2
ACAD
 70
     0
  0
ENDTAB
  0
TABLE
  2
DIMSTYLE
  5
A
330
0
100
AcDbSymbolTable
 70
     1
  0
DIMSTYLE
105
27
330
A
100
AcDbSymbolTableRecord
100
AcDbDimStyleTableRecord
  2
ISO-25
 70
     0
  3

  4

  5

  6

  7

 40
1.0
 41
2.5
 42
0.625
 43
3.75
 44
1.25
 45
0.0
 46
0.0
 47
0.0
 48
0.0
140
2.5
141
2.5
142
0.0
143
0.03937007874016
144
1.0
145
0.0
146
1.0
147
0.625
 71
     0
 72
     0
 73
     0
 74
     0
 75
     0
 76
     0
 77
     1
 78
     8
170
     0
171
     3
172
     1
173
     0
174
     0
175
     0
176
     0
177
     0
178
     0
270
     2
271
     2
272
     2
273
     2
274
     3
340
11
275
     0
280
     0
281
     0
282
     0
283
     0
284
     8
285
     0
286
     0
287
     3
288
     0
  0
ENDTAB
  0
TABLE
  2
BLOCK_RECORD
  5
1
330
0
100
AcDbSymbolTable
 70
     1
  0
BLOCK_RECORD
  5
1F
330
1
100
AcDbSymbolTableRecord
100
AcDbBlockTableRecord
  2
*MODEL_SPACE
  0
BLOCK_RECORD
  5
1B
330
1
100
AcDbSymbolTableRecord
100
AcDbBlockTableRecord
  2
*PAPER_SPACE
  0
ENDTAB
  0
ENDSEC
  0
SECTION
  2
BLOCKS
  0
BLOCK
  5
20
330
1F
100
AcDbEntity
  8
0
100
AcDbBlockBegin
  2
*MODEL_SPACE
 70
     0
 10
0.0
 20
0.0
 30
0.0
  3
*MODEL_SPACE
  1

  0
ENDBLK
  5
21
330
1F
100
AcDbEntity
  8
0
100
AcDbBlockEnd
  0
BLOCK
  5
1C
330
1B
100
AcDbEntity
 67
     1
  8
0
100
AcDbBlockBegin
  2
*PAPER_SPACE
  1

  0
ENDBLK
  5
1D
330
1B
100
AcDbEntity
 67
     1
  8
0
100
AcDbBlockEnd
  0
ENDSEC
  0
SECTION
  2
ENTITIES
  0
LWPOLYLINE
  5
100
100
AcDbEntity
  8
0
 62
7
100
AcDbPolyline
 90
72
 70
1
 10
12.920000
 20
40.091200
 30
0.0
 10
7.860000
 20
33.734200
 30
0.0
 10
7.701000
 20
33.348075
 30
0.0
 10
7.773000
 20
32.937200
 30
0.0
 10
8.054250
 20
32.628200
 30
0.0
 10
8.457000
 20
32.517200
 30
0.0
 10
11.959000
 20
32.565200
 30
0.0
 10
4.406000
 20
24.167200
 30
0.0
 10
4.222875
 20
23.785825
 30
0.0
 10
4.276000
 20
23.366200
 30
0.0
 10
4.548000
 20
23.041450
 30
0.0
 10
4.952000
 20
22.916200
 30
0.0
 10
9.278000
 20
22.849200
 30
0.0
 10
0.151000
 20
10.730200
 30
0.0
 10
0.003000
 20
10.345825
 30
0.0
 10
0.080000
 20
9.941200
 30
0.0
 10
0.358625
 20
9.638450
 30
0.0
 10
0.755000
 20
9.529200
 30
0.0
 10
10.670000
 20
9.602200
 30
0.0
 10
10.017000
 20
0.928200
 30
0.0
 10
10.215000
 20
0.362200
 30
0.0
 10
10.765000
 20
0.122200
 30
0.0
 10
22.294000
 20
0.122200
 30
0.0
 10
22.844000
 20
0.362200
 30
0.0
 10
23.042000
 20
0.928200
 30
0.0
 10
22.390000
 20
9.602200
 30
0.0
 10
32.304000
 20
9.529200
 30
0.0
 10
32.700875
 20
9.638450
 30
0.0
 10
32.980000
 20
9.941200
 30
0.0
 10
33.057000
 20
10.345825
 30
0.0
 10
32.909000
 20
10.730200
 30
0.0
 10
23.781000
 20
22.849200
 30
0.0
 10
28.108000
 20
22.916200
 30
0.0
 10
28.511875
 20
23.041450
 30
0.0
 10
28.783000
 20
23.366200
 30
0.0
 10
28.836250
 20
23.785825
 30
0.0
 10
28.654000
 20
24.167200
 30
0.0
 10
21.100000
 20
32.565200
 30
0.0
 10
24.603000
 20
32.517200
 30
0.0
 10
25.005250
 20
32.628200
 30
0.0
 10
25.286000
 20
32.937200
 30
0.0
 10
25.358500
 20
33.348075
 30
0.0
 10
25.200000
 20
33.734200
 30
0.0
 10
20.029000
 20
40.229200
 30
0.0
 10
20.040000
 20
40.221200
 30
0.0
 10
20.481000
 20
40.077950
 30
0.0
 10
20.922000
 20
40.221200
 30
0.0
 10
21.194625
 20
40.595950
 30
0.0
 10
21.195000
 20
41.059200
 30
0.0
 10
19.945000
 20
44.904200
 30
0.0
 10
23.216000
 20
47.280200
 30
0.0
 10
23.488500
 20
47.655450
 30
0.0
 10
23.488000
 20
48.119200
 30
0.0
 10
23.215875
 20
48.494075
 30
0.0
 10
22.775000
 20
48.637200
 30
0.0
 10
18.733000
 20
48.637200
 30
0.0
 10
17.483000
 20
52.482200
 30
0.0
 10
17.210875
 20
52.857075
 30
0.0
 10
16.770000
 20
53.000200
 30
0.0
 10
16.329125
 20
52.857075
 30
0.0
 10
16.057000
 20
52.482200
 30
0.0
 10
14.808000
 20
48.637200
 30
0.0
 10
10.765000
 20
48.637200
 30
0.0
 10
10.324125
 20
48.494075
 30
0.0
 10
10.052000
 20
48.119200
 30
0.0
 10
10.051500
 20
47.655450
 30
0.0
 10
10.324000
 20
47.280200
 30
0.0
 10
13.595000
 20
44.904200
 30
0.0
 10
12.345000
 20
41.059200
 30
0.0
 10
12.345375
 20
40.595950
 30
0.0
 10
12.618000
 20
40.221200
 30
0.0
 10
12.920000
 20
40.091200
 30
0.0
  0
LWPOLYLINE
  5
101
100
AcDbEntity
  8
0
 62
7
100
AcDbPolyline
 90
5
 70
1
 10
11.574000
 20
1.622200
 30
0.0
 10
12.169000
 20
9.528200
 30
0.0
 10
20.891000
 20
9.528200
 30
0.0
 10
21.486000
 20
1.622200
 30
0.0
 10
11.574000
 20
1.622200
 30
0.0
  0
LWPOLYLINE
  5
102
100
AcDbEntity
  8
0
 62
7
100
AcDbPolyline
 90
33
 70
1
 10
16.530000
 20
42.216200
 30
0.0
 10
10.020000
 20
34.039200
 30
0.0
 10
13.653000
 20
34.089200
 30
0.0
 10
14.065125
 20
33.972325
 30
0.0
 10
14.346000
 20
33.649200
 30
0.0
 10
14.404625
 20
33.224450
 30
0.0
 10
14.221000
 20
32.837200
 30
0.0
 10
6.624000
 20
24.390200
 30
0.0
 10
10.777000
 20
24.326200
 30
0.0
 10
11.167250
 20
24.209575
 30
0.0
 10
11.439000
 20
23.906200
 30
0.0
 10
11.511750
 20
23.505200
 30
0.0
 10
11.364000
 20
23.125200
 30
0.0
 10
2.262000
 20
11.040200
 30
0.0
 10
16.465000
 20
11.144200
 30
0.0
 10
16.503000
 20
11.145200
 30
0.0
 10
16.530000
 20
11.145200
 30
0.0
 10
16.556000
 20
11.145200
 30
0.0
 10
16.594000
 20
11.144200
 30
0.0
 10
30.798000
 20
11.040200
 30
0.0
 10
21.695000
 20
23.125200
 30
0.0
 10
21.548125
 20
23.505200
 30
0.0
 10
21.621000
 20
23.906200
 30
0.0
 10
21.892750
 20
24.209575
 30
0.0
 10
22.283000
 20
24.326200
 30
0.0
 10
26.436000
 20
24.390200
 30
0.0
 10
18.838000
 20
32.837200
 30
0.0
 10
18.654750
 20
33.224450
 30
0.0
 10
18.713000
 20
33.649200
 30
0.0
 10
18.993875
 20
33.972325
 30
0.0
 10
19.406000
 20
34.089200
 30
0.0
 10
23.040000
 20
34.039200
 30
0.0
 10
16.530000
 20
42.216200
 30
0.0
  0
LWPOLYLINE
  5
103
100
AcDbEntity
  8
0
 62
7
100
AcDbPolyline
 90
25
 70
1
 10
16.328000
 20
44.130200
 30
0.0
 10
16.329000
 20
44.131200
 30
0.0
 10
16.770000
 20
44.274450
 30
0.0
 10
17.211000
 20
44.131200
 30
0.0
 10
19.055000
 20
42.791200
 30
0.0
 10
18.350000
 20
44.959200
 30
0.0
 10
18.350375
 20
45.422450
 30
0.0
 10
18.623000
 20
45.797200
 30
0.0
 10
20.467000
 20
47.137200
 30
0.0
 10
18.188000
 20
47.137200
 30
0.0
 10
17.747000
 20
47.280325
 30
0.0
 10
17.474000
 20
47.655200
 30
0.0
 10
16.770000
 20
49.823200
 30
0.0
 10
16.066000
 20
47.655200
 30
0.0
 10
15.793000
 20
47.280325
 30
0.0
 10
15.352000
 20
47.137200
 30
0.0
 10
13.073000
 20
47.137200
 30
0.0
 10
14.917000
 20
45.797200
 30
0.0
 10
15.189625
 20
45.422450
 30
0.0
 10
15.190000
 20
44.959200
 30
0.0
 10
14.485000
 20
42.791200
 30
0.0
 10
15.872000
 20
43.799200
 30
0.0
 10
15.930000
 20
43.871200
 30
0.0
 10
16.326000
 20
44.129200
 30
0.0
 10
16.328000
 20
44.130200
 30
0.0
  0
ENDSEC
  0
SECTION
  2
OBJECTS
  0
DICTIONARY
  5
C
330
0
100
AcDbDictionary
  3
ACAD_GROUP
350
D
  3
ACAD_MLINESTYLE
350
17
  0
DICTIONARY
  5
D
330
C
100
AcDbDictionary
  0
DICTIONARY
  5
1A
330
C
100
AcDbDictionary
  0
DICTIONARY
  5
17
330
C
100
AcDbDictionary
  3
STANDARD
350
18
  0
DICTIONARY
  5
19
330
C
100
AcDbDictionary
  0
ENDSEC
  0
EOF
