  0
SECTION
  2
HEADER
  9
$ACADVER
  1
AC1014
  9
$HANDSEED
  5
FFFF
  9
$INSUNITS
 70
     0
  9
$MEASUREMENT
 70
     1
  0
ENDSEC
  0
SECTION
  2
TABLES
  0
TABLE
  2
VPORT
  5
8
330
0
100
AcDbSymbolTable
 70
     4
  0
VPORT
  5
2E
330
8
100
AcDbSymbolTableRecord
100
AcDbViewportTableRecord
  2
*ACTIVE
 70
     0
 10
0.0
 20
0.0
 11
1.0
 21
1.0
 12
210.0
 22
148.5
 13
0.0
 23
0.0
 14
10.0
 24
10.0
 15
10.0
 25
10.0
 16
0.0
 26
0.0
 36
1.0
 17
0.0
 27
0.0
 37
0.0
 40
341.0
 41
1.24
 42
50.0
 43
0.0
 44
0.0
 50
0.0
 51
0.0
 71
     0
 72
   100
 73
     1
 74
     3
 75
     0
 76
     0
 77
     0
 78
     0
  0
ENDTAB
  0
TABLE
  2
LTYPE
  5
5
330
0
100
AcDbSymbolTable
 70
     1
  0
LTYPE
  5
14
330
5
100
AcDbSymbolTableRecord
100
AcDbLinetypeTableRecord
  2
BYBLOCK
 70
     0
  3

 72
    65
 73
     0
 40
0.0
  0
LTYPE
  5
15
330
5
100
AcDbSymbolTableRecord
100
AcDbLinetypeTableRecord
  2
BYLAYER
 70
     0
  3

 72
    65
 73
     0
 40
0.0
  0
LTYPE
  5
16
330
5
100
AcDbSymbolTableRecord
100
AcDbLinetypeTableRecord
  2
CONTINUOUS
 70
     0
  3
Solid line
 72
    65
 73
     0
 40
0.0
  0
ENDTAB
  0
TABLE
  2
LAYER
  5
2
100
AcDbSymbolTable
 70
1
  0
LAYER
  5
50
100
AcDbSymbolTableRecord
100
AcDbLayerTableRecord
  2
0
 70
0
  6
CONTINUOUS
  0
ENDTAB
  0
TABLE
  2
STYLE
  5
3
330
0
100
AcDbSymbolTable
 70
     1
  0
STYLE
  5
11
330
3
100
AcDbSymbolTableRecord
100
AcDbTextStyleTableRecord
  2
STANDARD
 70
     0
 40
0.0
 41
1.0
 50
0.0
 71
     0
 42
2.5
  3
txt
  4

  0
ENDTAB
  0
TABLE
  2
VIEW
  5
6
330
0
100
AcDbSymbolTable
 70
     0
  0
ENDTAB
  0
TABLE
  2
UCS
  5
7
330
0
100
AcDbSymbolTable
 70
     0
  0
ENDTAB
  0
TABLE
  2
APPID
  5
9
330
0
100
AcDbSymbolTable
 70
     2
  0
APPID
  5
12
330
9
100
AcDbSymbolTableRecord
100
AcDbRegAppTableRecord
  2
ACAD
 70
     0
  0
ENDTAB
  0
TABLE
  2
DIMSTYLE
  5
A
330
0
100
AcDbSymbolTable
 70
     1
  0
DIMSTYLE
105
27
330
A
100
AcDbSymbolTableRecord
100
AcDbDimStyleTableRecord
  2
ISO-25
 70
     0
  3

  4

  5

  6

  7

 40
1.0
 41
2.5
 42
0.625
 43
3.75
 44
1.25
 45
0.0
 46
0.0
 47
0.0
 48
0.0
140
2.5
141
2.5
142
0.0
143
0.03937007874016
144
1.0
145
0.0
146
1.0
147
0.625
 71
     0
 72
     0
 73
     0
 74
     0
 75
     0
 76
     0
 77
     1
 78
     8
170
     0
171
     3
172
     1
173
     0
174
     0
175
     0
176
     0
177
     0
178
     0
270
     2
271
     2
272
     2
273
     2
274
     3
340
11
275
     0
280
     0
281
     0
282
     0
283
     0
284
     8
285
     0
286
     0
287
     3
288
     0
  0
ENDTAB
  0
TABLE
  2
BLOCK_RECORD
  5
1
330
0
100
AcDbSymbolTable
 70
     1
  0
BLOCK_RECORD
  5
1F
330
1
100
AcDbSymbolTableRecord
100
AcDbBlockTableRecord
  2
*MODEL_SPACE
  0
BLOCK_RECORD
  5
1B
330
1
100
AcDbSymbolTableRecord
100
AcDbBlockTableRecord
  2
*PAPER_SPACE
  0
ENDTAB
  0
ENDSEC
  0
SECTION
  2
BLOCKS
  0
BLOCK
  5
20
330
1F
100
AcDbEntity
  8
0
100
AcDbBlockBegin
  2
*MODEL_SPACE
 70
     0
 10
0.0
 20
0.0
 30
0.0
  3
*MODEL_SPACE
  1

  0
ENDBLK
  5
21
330
1F
100
AcDbEntity
  8
0
100
AcDbBlockEnd
  0
BLOCK
  5
1C
330
1B
100
AcDbEntity
 67
     1
  8
0
100
AcDbBlockBegin
  2
*PAPER_SPACE
  1

  0
ENDBLK
  5
1D
330
1B
100
AcDbEntity
 67
     1
  8
0
100
AcDbBlockEnd
  0
ENDSEC
  0
SECTION
  2
ENTITIES
  0
LWPOLYLINE
  5
100
100
AcDbEntity
  8
0
 62
7
100
AcDbPolyline
 90
91
 70
1
 10
4.201000
 20
14.220000
 30
0.0
 10
2.871000
 20
13.725875
 30
0.0
 10
2.033000
 20
13.171000
 30
0.0
 10
1.984000
 20
13.117000
 30
0.0
 10
1.126125
 20
11.918766
 30
0.0
 10
0.509000
 20
10.705625
 30
0.0
 10
0.133375
 20
9.479172
 30
0.0
 10
0.000000
 20
8.241000
 30
0.0
 10
0.110750
 20
6.993672
 30
0.0
 10
0.471250
 20
5.732375
 30
0.0
 10
1.090125
 20
4.458891
 30
0.0
 10
1.976000
 20
3.175000
 30
0.0
 10
2.033000
 20
3.111000
 30
0.0
 10
3.230250
 20
2.392125
 30
0.0
 10
5.230000
 20
1.797000
 30
0.0
 10
8.045687
 20
1.339891
 30
0.0
 10
11.458000
 20
1.023875
 30
0.0
 10
19.267000
 20
0.802000
 30
0.0
 10
27.038500
 20
1.102750
 30
0.0
 10
30.408437
 20
1.437344
 30
0.0
 10
33.166000
 20
1.888000
 30
0.0
 10
35.111375
 20
2.453750
 30
0.0
 10
36.234000
 20
3.111000
 30
0.0
 10
37.170486
 20
4.235324
 30
0.0
 10
37.815328
 20
5.424781
 30
0.0
 10
38.181850
 20
6.664348
 30
0.0
 10
38.283375
 20
7.939000
 30
0.0
 10
38.133229
 20
9.233715
 30
0.0
 10
37.744734
 20
10.533469
 30
0.0
 10
37.131217
 20
11.823238
 30
0.0
 10
36.306000
 20
13.088000
 30
0.0
 10
36.234000
 20
13.171000
 30
0.0
 10
35.104625
 20
13.832875
 30
0.0
 10
33.154000
 20
14.401000
 30
0.0
 10
31.062000
 20
14.761000
 30
0.0
 10
29.830766
 20
16.218703
 30
0.0
 10
29.160625
 20
17.767625
 30
0.0
 10
29.012672
 20
19.311484
 30
0.0
 10
29.348000
 20
20.754000
 30
0.0
 10
30.115891
 20
21.980313
 30
0.0
 10
31.267125
 20
22.900250
 30
0.0
 10
32.751547
 20
23.420813
 30
0.0
 10
34.519000
 20
23.449000
 30
0.0
 10
35.272609
 20
22.396828
 30
0.0
 10
36.274375
 20
21.580625
 30
0.0
 10
37.471703
 20
21.052609
 30
0.0
 10
38.812000
 20
20.865000
 30
0.0
 10
39.790812
 20
20.963781
 30
0.0
 10
40.702687
 20
21.247063
 30
0.0
 10
41.528031
 20
21.695250
 30
0.0
 10
42.247250
 20
22.288750
 30
0.0
 10
42.840750
 20
23.007969
 30
0.0
 10
43.288937
 20
23.833313
 30
0.0
 10
43.572219
 20
24.745188
 30
0.0
 10
43.671000
 20
25.724000
 30
0.0
 10
43.572219
 20
26.702482
 30
0.0
 10
43.288937
 20
27.614109
 30
0.0
 10
42.840750
 20
28.439275
 30
0.0
 10
42.247250
 20
29.158375
 30
0.0
 10
41.528031
 20
29.751803
 30
0.0
 10
40.702687
 20
30.199953
 30
0.0
 10
39.790812
 20
30.483221
 30
0.0
 10
38.812000
 20
30.582000
 30
0.0
 10
37.740812
 20
30.463313
 30
0.0
 10
36.752500
 20
30.124500
 30
0.0
 10
35.872937
 20
29.591438
 30
0.0
 10
35.128000
 20
28.890000
 30
0.0
 10
33.490643
 20
30.480139
 30
0.0
 10
31.696828
 20
31.962734
 30
0.0
 10
29.747318
 20
33.287432
 30
0.0
 10
27.642875
 20
34.403875
 30
0.0
 10
25.384260
 20
35.261709
 30
0.0
 10
22.972234
 20
35.810578
 30
0.0
 10
20.407561
 20
36.000127
 30
0.0
 10
17.691000
 20
35.780000
 30
0.0
 10
16.039999
 20
35.432128
 30
0.0
 10
14.431227
 20
34.920818
 30
0.0
 10
12.878716
 20
34.252533
 30
0.0
 10
11.396500
 20
33.433734
 30
0.0
 10
9.998612
 20
32.470883
 30
0.0
 10
8.699086
 20
31.370439
 30
0.0
 10
7.511954
 20
30.138866
 30
0.0
 10
6.451250
 20
28.782625
 30
0.0
 10
5.531007
 20
27.308177
 30
0.0
 10
4.765258
 20
25.721982
 30
0.0
 10
4.168036
 20
24.030504
 30
0.0
 10
3.753375
 20
22.240203
 30
0.0
 10
3.535308
 20
20.357541
 30
0.0
 10
3.527867
 20
18.388979
 30
0.0
 10
3.745087
 20
16.340978
 30
0.0
 10
4.201000
 20
14.220000
 30
0.0
  0
LWPOLYLINE
  5
101
100
AcDbEntity
  8
0
 62
7
100
AcDbPolyline
 90
38
 70
1
 10
35.139000
 20
12.143000
 30
0.0
 10
35.796754
 20
11.131160
 30
0.0
 10
36.294781
 20
10.100031
 30
0.0
 10
36.619605
 20
9.061449
 30
0.0
 10
36.757750
 20
8.027250
 30
0.0
 10
36.695738
 20
7.009270
 30
0.0
 10
36.420094
 20
6.019344
 30
0.0
 10
35.917340
 20
5.069309
 30
0.0
 10
35.174000
 20
4.171000
 30
0.0
 10
34.320125
 20
3.729625
 30
0.0
 10
32.855000
 20
3.355000
 30
0.0
 10
30.157281
 20
2.915828
 30
0.0
 10
26.860500
 20
2.591875
 30
0.0
 10
19.258000
 20
2.302000
 30
0.0
 10
11.630750
 20
2.512875
 30
0.0
 10
8.297406
 20
2.817953
 30
0.0
 10
5.547000
 20
3.263000
 30
0.0
 10
4.049875
 20
3.658500
 30
0.0
 10
3.125000
 20
4.141000
 30
0.0
 10
2.406891
 20
5.179094
 30
0.0
 10
1.896625
 20
6.205000
 30
0.0
 10
1.594297
 20
7.220406
 30
0.0
 10
1.500000
 20
8.227000
 30
0.0
 10
1.611531
 20
9.218734
 30
0.0
 10
1.922000
 20
10.198375
 30
0.0
 10
2.424469
 20
11.167328
 30
0.0
 10
3.112000
 20
12.127000
 30
0.0
 10
4.034500
 20
12.612250
 30
0.0
 10
5.530000
 20
13.006000
 30
0.0
 10
8.274781
 20
13.449188
 30
0.0
 10
11.604750
 20
13.755500
 30
0.0
 10
19.232000
 20
13.974000
 30
0.0
 10
26.838500
 20
13.693500
 30
0.0
 10
30.139719
 20
13.372125
 30
0.0
 10
32.843000
 20
12.933000
 30
0.0
 10
34.273625
 20
12.570375
 30
0.0
 10
35.138000
 20
12.144000
 30
0.0
 10
35.139000
 20
12.143000
 30
0.0
  0
LWPOLYLINE
  5
102
100
AcDbEntity
  8
0
 62
7
100
AcDbPolyline
 90
44
 70
1
 10
34.329000
 20
27.598000
 30
0.0
 10
34.160000
 20
27.732000
 30
0.0
 10
32.640656
 20
29.227293
 30
0.0
 10
30.975437
 20
30.629094
 30
0.0
 10
29.164437
 20
31.887785
 30
0.0
 10
27.207750
 20
32.953750
 30
0.0
 10
25.105469
 20
33.777371
 30
0.0
 10
22.857687
 20
34.309031
 30
0.0
 10
20.464500
 20
34.499113
 30
0.0
 10
17.926000
 20
34.298000
 30
0.0
 10
16.418000
 20
33.979918
 30
0.0
 10
14.949373
 20
33.511906
 30
0.0
 10
13.532868
 20
32.899941
 30
0.0
 10
12.181234
 20
32.150000
 30
0.0
 10
10.907219
 20
31.268059
 30
0.0
 10
9.723572
 20
30.260094
 30
0.0
 10
8.643041
 20
29.132082
 30
0.0
 10
7.678375
 20
27.890000
 30
0.0
 10
6.842322
 20
26.539824
 30
0.0
 10
6.147631
 20
25.087531
 30
0.0
 10
5.607050
 20
23.539098
 30
0.0
 10
5.233328
 20
21.900500
 30
0.0
 10
5.039214
 20
20.177715
 30
0.0
 10
5.037455
 20
18.376719
 30
0.0
 10
5.240801
 20
16.503488
 30
0.0
 10
5.662000
 20
14.564000
 30
0.0
 10
8.449125
 20
14.978156
 30
0.0
 10
11.758250
 20
15.266500
 30
0.0
 10
19.239000
 20
15.474000
 30
0.0
 10
24.234500
 20
15.349375
 30
0.0
 10
28.819000
 20
15.026000
 30
0.0
 10
27.950203
 20
16.621016
 30
0.0
 10
27.542375
 20
18.249125
 30
0.0
 10
27.558859
 20
19.841422
 30
0.0
 10
27.963000
 20
21.329000
 30
0.0
 10
28.875047
 20
22.843766
 30
0.0
 10
30.217875
 20
24.032375
 30
0.0
 10
31.036154
 20
24.470533
 30
0.0
 10
31.944516
 20
24.786547
 30
0.0
 10
32.937088
 20
24.966881
 30
0.0
 10
34.008000
 20
24.998000
 30
0.0
 10
33.954000
 20
25.724000
 30
0.0
 10
34.051125
 20
26.693625
 30
0.0
 10
34.329000
 20
27.598000
 30
0.0
  0
LWPOLYLINE
  5
103
100
AcDbEntity
  8
0
 62
7
100
AcDbPolyline
 90
17
 70
1
 10
38.812000
 20
29.082000
 30
0.0
 10
40.119000
 20
28.817891
 30
0.0
 10
41.186750
 20
28.097875
 30
0.0
 10
41.906875
 20
27.030422
 30
0.0
 10
42.171000
 20
25.724000
 30
0.0
 10
41.906875
 20
24.417000
 30
0.0
 10
41.186750
 20
23.349250
 30
0.0
 10
40.119000
 20
22.629125
 30
0.0
 10
38.812000
 20
22.365000
 30
0.0
 10
37.505578
 20
22.629125
 30
0.0
 10
36.438125
 20
23.349250
 30
0.0
 10
35.718109
 20
24.417000
 30
0.0
 10
35.454000
 20
25.724000
 30
0.0
 10
35.718109
 20
27.030422
 30
0.0
 10
36.438125
 20
28.097875
 30
0.0
 10
37.505578
 20
28.817891
 30
0.0
 10
38.812000
 20
29.082000
 30
0.0
  0
ENDSEC
  0
SECTION
  2
OBJECTS
  0
DICTIONARY
  5
C
330
0
100
AcDbDictionary
  3
ACAD_GROUP
350
D
  3
ACAD_MLINESTYLE
350
17
  0
DICTIONARY
  5
D
330
C
100
AcDbDictionary
  0
DICTIONARY
  5
1A
330
C
100
AcDbDictionary
  0
DICTIONARY
  5
17
330
C
100
AcDbDictionary
  3
STANDARD
350
18
  0
DICTIONARY
  5
19
330
C
100
AcDbDictionary
  0
ENDSEC
  0
EOF
